<svg id="Layer_3" enable-background="new 0 0 64 64" height="512" viewBox="0 0 64 64" width="512" xmlns="http://www.w3.org/2000/svg"><path d="m32 20c-1.657 0-3-1.343-3-3v-2c0-1.657 1.343-3 3-3 1.657 0 3 1.343 3 3v2c0 1.657-1.343 3-3 3z" fill="#efbe9a"/><path d="m26 40v18h4v-14h4v14h4v-18" fill="#4d5d7a"/><path d="m26 40v-6h-3v-8c0-2.209 1.791-4 4-4h10c2.209 0 4 1.791 4 4v8h-3v6" fill="#e39854"/><path d="m24 62h6v-4h-4c-1.105 0-2 .895-2 2z" fill="#e39854"/><path d="m40 62h-6v-4h4c1.105 0 2 .895 2 2z" fill="#e39854"/><g fill="#4472b2"><path d="m32 10c-3.976 0-8-1.374-8-4s4.024-4 8-4 8 1.374 8 4-4.024 4-8 4zm0-6c-3.722 0-6 1.295-6 2s2.278 2 6 2 6-1.295 6-2-2.278-2-6-2z"/><path d="m40 13h2v2h-2z"/><path d="m44 13h2v2h-2z"/><path d="m42 11h2v2h-2z"/><path d="m42 15h2v2h-2z"/><path d="m46 23h2v2h-2z"/><path d="m50 23h2v2h-2z"/><path d="m48 21h2v2h-2z"/><path d="m48 25h2v2h-2z"/><path d="m12 23h2v2h-2z"/><path d="m16 23h2v2h-2z"/><path d="m14 21h2v2h-2z"/><path d="m14 25h2v2h-2z"/><path d="m18 13h2v2h-2z"/><path d="m22 13h2v2h-2z"/><path d="m20 11h2v2h-2z"/><path d="m20 15h2v2h-2z"/></g><path d="m38 22.141v8.859h-5v3h8v-8c0-1.862-1.278-3.412-3-3.859z" fill="#c16b3f"/><path d="m26 22.141v8.859h5v3h-8v-8c0-1.862 1.278-3.412 3-3.859z" fill="#c16b3f"/></svg>