<svg id="Layer_3" enable-background="new 0 0 64 64" height="512" viewBox="0 0 64 64" width="512" xmlns="http://www.w3.org/2000/svg"><path d="m2 25c0 9.941 8.059 18 18 18 4.198 0 7.942 2.639 9.354 6.592l2.646 7.408 2.646-7.408c1.412-3.953 5.156-6.592 9.354-6.592 9.941 0 18-8.059 18-18s-8.059-18-18-18c-4.617 0-8.814 1.753-12 4.61-3.186-2.857-7.383-4.61-12-4.61-9.941 0-18 8.059-18 18z" fill="#2b74ca"/><path d="m32 11.61c-3.186-2.857-7.383-4.61-12-4.61-9.941 0-18 8.059-18 18 0 5.58 2.54 10.566 6.526 13.868 1.307.087 2.632.132 3.974.132 21.263 0 38.5-11.193 38.5-25 0-2.069-.394-4.077-1.124-5.999-1.844-.638-3.815-1.001-5.876-1.001-4.617 0-8.814 1.753-12 4.61z" fill="#3d98f7"/><path d="m54.807 23.03 5.412-5.798c-.305-.635-.642-1.251-1.017-1.842l-6.222 6.666-8.267-4.409 4.093-9.978c-1.086-.301-2.21-.504-3.368-.596l-7.578 6.919-5.31-2.832c-.182.151-.373.293-.549.451-.176-.158-.367-.3-.549-.451l-5.31 2.832-7.578-6.919c-1.158.092-2.282.295-3.368.596l4.093 9.978-8.267 4.409-6.224-6.666c-.375.591-.712 1.207-1.017 1.842l5.412 5.798-7.101 3.787c.075.743.207 1.468.37 2.182h12.303l5.234 5.608-9.09 5.909c.661.388 1.34.75 2.051 1.053l8.425-5.476 9.884 10.59.006-.005c.185.198.443.322.725.322s.54-.124.726-.323l.006.005 9.884-10.59 8.425 5.476c.712-.303 1.39-.664 2.051-1.053l-9.091-5.909 5.234-5.606h12.304c.162-.714.295-1.439.37-2.182zm-8.823-13.749-3.044 7.42-3.208-1.711zm-7.82 7.14 4.012 2.14-3.006 7.328-5.688-5.193zm-11.586 10.579 5.422-4.951 5.422 4.951h-5.421c-.001 0-.002 0-.003 0zm2.049 2-1.99 1.293-.53-1.293zm9.267 0-.531 1.293-1.99-1.293zm-5.894-15.867 4.293 2.289-4.293 3.92-4.293-3.919zm-1.482 7.563-5.688 5.193-3.006-7.328 4.012-2.14zm-12.501-11.414 6.252 5.708-3.208 1.711zm-12.017 17.718 4.605-2.456 2.293 2.456zm6.433-3.431 7.618-4.063 3.074 7.494h-7.49zm5.068 5.431h6.444l.986 2.402-3.228 2.099zm5.587 5.986 2.615-1.7 3.295 8.032zm8.912 8.379-4.59-11.189 4.59-2.983 4.59 2.984zm3.002-2.047 3.295-8.032 2.615 1.7zm7.296-7.817-3.228-2.098.985-2.403h6.443zm6.067-6.501h-7.49l3.074-7.494 7.617 4.063zm5.029-2.456 4.606 2.456h-6.898z" fill="#2d4d83"/></svg>