<svg id="Layer_3" enable-background="new 0 0 64 64" height="512" viewBox="0 0 64 64" width="512" xmlns="http://www.w3.org/2000/svg"><path d="m2 34h33l-19 28h-14z" fill="#c18e59"/><path d="m54 31-4-3-5-6-3 3 7 8-5 7-4.509-1.803c-.324-.13-.671-.197-1.02-.197-.919 0-1.777.459-2.287 1.224l-5.184 7.776 4 3 4-6 7 3-2.494 4.157c-.331.552-.506 1.183-.506 1.826 0 .665.187 1.316.539 1.88l4.461 7.137 4-2-4-6 4-7 4 2 3-9z" fill="#e47c6e"/><path d="m16 26h-8v4h11l6-8 7 4h-6v4h8.743c1.799 0 3.257-1.458 3.257-3.257 0-1.089-.544-2.106-1.45-2.71l-4.55-3.033 3-6 2 3 3 4 3-3-5-7-4-6h-10l-5 8 3.176 2.118z" fill="#4472b2"/><g fill="#efbe9a"><circle cx="58" cy="26" r="4"/><circle cx="42" cy="6" r="4"/></g></svg>