<svg id="Layer_3" enable-background="new 0 0 64 64" height="512" viewBox="0 0 64 64" width="512" xmlns="http://www.w3.org/2000/svg"><path d="m62 18-4.248 1.82c-.802 2.982-3.517 5.18-6.752 5.18-3.866 0-7-3.134-7-7s3.134-7 7-7c3.235 0 5.95 2.198 6.752 5.18z" fill="#c16b3f"/><path d="m44 18c0 .817.147 1.597.404 2.326.945.429 1.991.674 3.096.674 4.142 0 7.5-3.358 7.5-7.5 0-.443-.046-.875-.12-1.297-1.112-.748-2.438-1.203-3.88-1.203-3.866 0-7 3.134-7 7z" fill="#e39854"/><path d="m2 18 4.248 1.82c.802 2.982 3.517 5.18 6.752 5.18 3.866 0 7-3.134 7-7s-3.134-7-7-7c-3.235 0-5.95 2.198-6.752 5.18z" fill="#c16b3f"/><path d="m20 18c0 .817-.147 1.597-.404 2.326-.945.429-1.991.674-3.096.674-4.142 0-7.5-3.358-7.5-7.5 0-.443.046-.875.12-1.297 1.112-.748 2.438-1.203 3.88-1.203 3.866 0 7 3.134 7 7z" fill="#e39854"/><path d="m32 2 1.82 4.248c2.982.802 5.18 3.517 5.18 6.752 0 3.866-3.134 7-7 7s-7-3.134-7-7c0-3.235 2.198-5.95 5.18-6.752z" fill="#c16b3f"/><path d="m32 20c.817 0 1.597-.147 2.326-.404.429-.945.674-1.991.674-3.096 0-4.142-3.358-7.5-7.5-7.5-.443 0-.875.046-1.297.12-.748 1.112-1.203 2.438-1.203 3.88 0 3.866 3.134 7 7 7z" fill="#e39854"/><path d="m38 58v-22h8c1.105 0 2-.895 2-2v-2h-32v2c0 1.105.895 2 2 2h8v22h4v-10h4v10" fill="#4d5d7a"/><path d="m26 44v-8h-8c-1.105 0-2-.895-2-2v-2h32v2c0 1.105-.895 2-2 2h-8v8" fill="#e39854"/><path d="m32 30c-1.657 0-3-1.343-3-3v-2c0-1.657 1.343-3 3-3 1.657 0 3 1.343 3 3v2c0 1.657-1.343 3-3 3z" fill="#efbe9a"/><path d="m24 62h6v-4h-4c-1.105 0-2 .895-2 2z" fill="#e39854"/><path d="m40 62h-6v-4h4c1.105 0 2 .895 2 2z" fill="#e39854"/><g fill="#fff"><path d="m31 8h2v5h-2z"/><path d="m31 15h2v2h-2z"/><path d="m50 13h2v5h-2z"/><path d="m50 20h2v2h-2z"/><path d="m12 13h2v5h-2z"/><path d="m12 20h2v2h-2z"/></g></svg>